<svg xmlns="http://www.w3.org/2000/svg" width="75" height="75" viewBox="0 0 75 75" fill="none"><path d="M65.2008 11.8083H60.5713V4.76074C60.5713 2.13574 58.4357 0 55.8105 0H19.1895C16.5643 0 14.4287 2.13574 14.4287 4.76074V8.821C14.4737 10.2735 16.5814 10.2725 16.626 8.821V4.76074C16.626 3.34731 17.776 2.19727 19.1895 2.19727H26.4715L27.2354 4.33887C27.6533 5.51118 28.7706 6.29883 30.0152 6.29883H44.9846C46.2293 6.29883 47.3465 5.51118 47.7646 4.33887L48.5285 2.19727H55.8105C57.224 2.19727 58.374 3.34731 58.374 4.76074V11.8083H43.9301C41.8787 11.8083 40.21 13.478 40.21 15.5307V29.3473C40.21 31.3998 41.8789 33.0697 43.9301 33.0697H50.8496V35.828C50.8496 36.3464 51.1548 36.8193 51.6272 37.0326C52.0963 37.2451 52.655 37.1635 53.0448 36.8197L57.3 33.0697H58.374V64.4893H48.6948C47.2422 64.5343 47.2433 66.642 48.6948 66.6866H58.374V70.2393C58.374 71.6527 57.224 72.8027 55.8105 72.8027H19.1895C17.776 72.8027 16.626 71.6527 16.626 70.2393V66.6866H43.4077C44.8603 66.6416 44.8592 64.5338 43.4077 64.4893H16.626V53.9789H17.6999L21.9552 57.7289C22.3452 58.0729 22.9036 58.1543 23.3728 57.9417C23.8452 57.7283 24.1504 57.2556 24.1504 56.7372V53.9789H31.0699C33.1213 53.9789 34.79 52.3091 34.79 50.2564V36.4399C34.79 34.3874 33.1211 32.7174 31.0699 32.7174H16.626V14.0536C16.581 12.601 14.4732 12.6021 14.4287 14.0536V32.7174H9.79922C7.74785 32.7174 6.0791 34.3872 6.0791 36.4399V50.2564C6.0791 52.309 7.748 53.9789 9.79922 53.9789H14.4287V70.2393C14.4287 72.8643 16.5643 75 19.1895 75H55.8105C58.4357 75 60.5713 72.8643 60.5713 70.2393V33.0696H65.2008C67.2521 33.0696 68.9209 31.3998 68.9209 29.3471V15.5306C68.9209 13.478 67.252 11.8083 65.2008 11.8083ZM45.6949 3.60088C45.5881 3.90044 45.3026 4.10156 44.9846 4.10156H30.0152C29.6972 4.10156 29.4117 3.90029 29.3049 3.60073L28.8044 2.19727H46.1958L45.6949 3.60088ZM8.27637 50.2563V36.4397C8.27637 35.5988 8.95957 34.9146 9.79922 34.9146H31.0698C31.9094 34.9146 32.5926 35.5986 32.5926 36.4397V50.2563C32.5926 51.0973 31.9094 51.7815 31.0698 51.7815H23.2743C22.5457 51.7815 21.9529 52.3743 21.9529 53.1031V54.798L18.9045 52.1118C18.6631 51.8987 18.3526 51.7815 18.0306 51.7815H9.79922C8.95957 51.7815 8.27637 51.0974 8.27637 50.2563ZM66.7236 29.3473C66.7236 30.1882 66.0404 30.8725 65.2008 30.8725H56.9692C56.6473 30.8725 56.3369 30.9898 56.0956 31.2025L53.047 33.889V32.194C53.047 31.4653 52.4542 30.8725 51.7255 30.8725H43.9301C43.0904 30.8725 42.4072 30.1884 42.4072 29.3473V15.5307C42.4072 14.6897 43.0904 14.0055 43.9301 14.0055H65.2006C66.0403 14.0055 66.7235 14.6896 66.7235 15.5307V29.3473H66.7236Z" fill="#FFB606"></path><path d="M54.2919 27.3196H54.2904C52.8382 27.3648 52.8401 29.4725 54.2919 29.5168C55.7441 29.472 55.7437 27.3641 54.2919 27.3196Z" fill="#FFB606"></path><path d="M54.3738 16.2026C52.2829 16.1579 50.4888 17.6884 50.2002 19.7559C50.0317 20.5645 50.3268 21.3991 51.2591 21.4293C52.0352 21.4173 52.4046 20.7735 52.3764 20.0598C52.5111 19.0933 53.3528 18.3753 54.3297 18.3994C55.3367 18.4197 56.1662 19.2222 56.2184 20.2265C56.2462 20.763 56.0587 21.2721 55.6903 21.6602C55.3214 22.0487 54.8241 22.2625 54.2896 22.2625C53.6827 22.2625 53.191 22.7544 53.191 23.3612V25.4541C53.2359 26.9067 55.3437 26.9056 55.3882 25.4541V24.3095C56.1051 24.1106 56.7648 23.7198 57.2837 23.1731C58.0712 22.3437 58.4722 21.2568 58.4128 20.1127C58.3011 17.9635 56.5272 16.246 54.3738 16.2026Z" fill="#FFB606"></path><path d="M19.2883 47.9069C19.5971 47.9353 19.9079 47.83 20.1361 47.617L26.8885 41.3333C27.9212 40.3108 26.4845 38.7685 25.3915 39.7249L19.5366 45.1736L16.7405 41.4197C16.3782 40.9331 15.6899 40.8324 15.2031 41.1948C14.7166 41.5574 14.6159 42.2456 14.9784 42.7322L18.5066 47.4692C18.6931 47.7195 18.9774 47.8788 19.2883 47.9069Z" fill="#FFB606"></path><path d="M40.5969 45.4988H52.2742C53.7267 45.4538 53.7257 43.346 52.2742 43.3015H40.5969C39.1442 43.3466 39.1454 45.4544 40.5969 45.4988Z" fill="#FFB606"></path><path d="M40.5969 50.1487H52.2742C53.7267 50.1037 53.7257 47.9959 52.2742 47.9514H40.5969C39.1442 47.9964 39.1454 50.1042 40.5969 50.1487Z" fill="#FFB606"></path><path d="M40.5969 54.7986H49.0666C50.5192 54.7536 50.5181 52.6458 49.0666 52.6013H40.5969C39.1442 52.6463 39.1454 54.7541 40.5969 54.7986Z" fill="#FFB606"></path></svg>