<svg xmlns="http://www.w3.org/2000/svg" width="75" height="75" viewBox="0 0 75 75" fill="none"><g clip-path="url(#clip0_2575_9428)"><path d="M61.931 23.7031H56.4773V17.8928C56.4773 14.5632 55.2246 11.3914 52.9499 8.96191C52.527 8.51016 51.818 8.48701 51.3665 8.90991C50.9149 9.33281 50.8916 10.0417 51.3145 10.4931C53.199 12.506 54.237 15.1339 54.237 17.8928V23.7031H31.4423C24.236 23.7031 18.3732 29.566 18.3732 36.7723V40.7798H16.6187C15.9207 40.7798 15.2643 41.0517 14.7705 41.5453L8.82495 47.4908V41.5099C8.82495 40.5936 8.33437 39.7326 7.54438 39.2629C4.2728 37.3178 2.24033 33.7497 2.24033 29.9512V17.8928C2.24033 11.9218 7.09805 7.06406 13.069 7.06406H43.4083C44.8078 7.06406 46.1691 7.32671 47.4543 7.84497C48.0281 8.07598 48.6809 7.79853 48.9122 7.2249C49.1435 6.65112 48.8659 5.99839 48.2921 5.76709C46.7395 5.14102 45.0962 4.82373 43.4083 4.82373H13.069C5.86274 4.82373 0 10.6865 0 17.8928V29.9512C0 34.5359 2.45215 38.8418 6.39946 41.1886C6.51372 41.2566 6.58462 41.3796 6.58462 41.51V48.0318C6.58462 48.8502 7.07314 49.5813 7.8293 49.8946C8.33394 50.1372 9.36431 50.1022 10.0267 49.4577L16.3545 43.1297C16.4251 43.0591 16.5189 43.0203 16.6187 43.0203H18.3732V48.8306C18.3732 50.5945 18.7189 52.3062 19.4007 53.9181C19.6417 54.4878 20.2989 54.754 20.8688 54.5134C21.4386 54.2725 21.705 53.6152 21.4642 53.0454C20.9 51.7112 20.6137 50.2932 20.6137 48.8307V36.7724C20.6137 30.8013 25.4714 25.9436 31.4424 25.9436H61.931C67.902 25.9436 72.7597 30.8013 72.7597 36.7724V48.8307C72.7597 52.644 70.8098 56.1051 67.5436 58.0894C66.7739 58.5571 66.2956 59.4107 66.2956 60.3168V67.6229L59.0977 60.4248C58.604 59.9312 57.9476 59.6593 57.2495 59.6593H31.4423C28.7249 59.6593 26.1264 58.6485 24.1252 56.8134C23.6694 56.3955 22.9608 56.4259 22.5425 56.8818C22.1243 57.3378 22.1549 58.0463 22.6109 58.4646C25.0263 60.6798 28.1625 61.8998 31.4421 61.8998H57.2492C57.3475 61.8998 57.4437 61.9396 57.5131 62.0092L65.0936 69.5896C65.6789 70.0395 66.2511 70.3872 67.2908 70.0266C68.047 69.7132 68.5355 68.9821 68.5355 68.1637V60.3167C68.5355 60.1879 68.6011 60.068 68.7066 60.004C72.6475 57.61 75 53.4331 75 48.8306V36.7723C75 29.566 69.1373 23.7031 61.931 23.7031Z" fill="#FFB606"></path><path d="M43.5253 50.4179C42.8685 49.4898 41.6719 48.8675 40.3071 48.8675C38.2377 48.8675 36.5543 50.2979 36.5543 52.0562C36.5543 53.8143 38.2378 55.2447 40.3071 55.2447C42.1229 55.2447 43.6412 54.1433 43.9862 52.6855C45.6385 51.9895 46.9393 50.6028 47.5039 48.8483C49.1398 48.4758 50.3648 47.0104 50.3648 45.2631V41.2238C50.3648 39.5371 49.2231 38.1129 47.6722 37.6811C47.3071 35.4312 46.2015 33.3668 44.5065 31.8066C42.6152 30.0657 40.1572 29.1069 37.5853 29.1069C32.5241 29.1069 28.2908 32.7525 27.4973 37.6812C25.9469 38.1134 24.8057 39.5374 24.8057 41.2237V45.263C24.8057 47.2909 26.4555 48.9408 28.4834 48.9408C30.5114 48.9408 32.1612 47.2909 32.1612 45.263V41.2237C32.1612 39.6424 31.158 38.2911 29.7546 37.7725C30.4809 34.0613 33.7251 31.3473 37.5853 31.3473C41.3965 31.3473 44.6815 34.1088 45.4129 37.7737C44.0111 38.293 43.0093 39.6434 43.0093 41.2237V45.263C43.0093 46.7577 43.9061 48.0462 45.1896 48.6208C44.8334 49.3861 44.2477 50.0111 43.5253 50.4179ZM40.3071 53.0045C39.4157 53.0045 38.7946 52.5049 38.7946 52.0563C38.7946 51.6078 39.4157 51.108 40.3071 51.108C41.1984 51.108 41.8197 51.6078 41.8197 52.0563C41.8197 52.5049 41.1983 53.0045 40.3071 53.0045ZM29.9209 45.2633C29.9209 46.0559 29.2761 46.7007 28.4834 46.7007C27.6908 46.7007 27.046 46.0559 27.046 45.2633V41.224C27.046 40.4313 27.6908 39.7865 28.4834 39.7865C29.2761 39.7865 29.9209 40.4313 29.9209 41.224V45.2633ZM45.2496 41.224C45.2496 40.4313 45.8944 39.7865 46.6871 39.7865C47.4797 39.7865 48.1245 40.4313 48.1245 41.224V45.2633C48.1245 46.0559 47.4797 46.7007 46.6871 46.7007C45.8944 46.7007 45.2496 46.0559 45.2496 45.2633V41.224Z" fill="#FFB606"></path><path d="M53.2754 35.4554H62.1979C62.8166 35.4554 63.3181 34.954 63.3181 34.3353C63.3181 33.7165 62.8166 33.2151 62.1979 33.2151H53.2754C52.6568 33.2151 52.1553 33.7165 52.1553 34.3353C52.1553 34.954 52.6568 35.4554 53.2754 35.4554Z" fill="#FFB606"></path><path d="M53.2754 40.4701H60.1554C60.774 40.4701 61.2755 39.9687 61.2755 39.3499C61.2755 38.7312 60.774 38.2297 60.1554 38.2297H53.2754C52.6568 38.2297 52.1553 38.7312 52.1553 39.3499C52.1553 39.9687 52.6568 40.4701 53.2754 40.4701Z" fill="#FFB606"></path><path d="M11.0207 21.1456C11.943 21.1456 12.6907 20.3978 12.6907 19.4755C12.6907 18.5531 11.943 17.8054 11.0207 17.8054C10.0983 17.8054 9.35059 18.5531 9.35059 19.4755C9.35059 20.3978 10.0983 21.1456 11.0207 21.1456Z" fill="#FFB606"></path><path d="M16.0783 21.1456C17.0006 21.1456 17.7483 20.3978 17.7483 19.4755C17.7483 18.5531 17.0006 17.8054 16.0783 17.8054C15.1559 17.8054 14.4082 18.5531 14.4082 19.4755C14.4082 20.3978 15.1559 21.1456 16.0783 21.1456Z" fill="#FFB606"></path><path d="M21.1066 21.1456C22.0289 21.1456 22.7767 20.3978 22.7767 19.4755C22.7767 18.5531 22.0289 17.8054 21.1066 17.8054C20.1842 17.8054 19.4365 18.5531 19.4365 19.4755C19.4365 20.3978 20.1842 21.1456 21.1066 21.1456Z" fill="#FFB606"></path></g><defs><clipPath id="clip0_2575_9428"><rect width="75" height="75" fill="white"></rect></clipPath></defs></svg>